HIERARCHY
ROOT Hips
{
 OFFSET 0.000000 0.000000 0.000000
 CHANNELS 6 Xposition Yposition Zposition Yrotation Xrotation Zrotation
 JOINT Chest
 {
  OFFSET 0.000000 14.374500 -0.011500
  CHANNELS 3 Yrotation Xrotation Zrotation
  JOINT Chest2
  {
   OFFSET 0.000000 9.203400 0.023400
   CHANNELS 3 Yrotation Xrotation Zrotation
   JOINT Chest3
   {
    OFFSET 0.000000 9.162700 0.000000
    CHANNELS 3 Yrotation Xrotation Zrotation
    JOINT Chest4
    {
     OFFSET 0.000000 9.153300 0.000000
     CHANNELS 3 Yrotation Xrotation Zrotation
     JOINT Neck
     {
      OFFSET 0.000000 13.353600 0.000000
      CHANNELS 3 Yrotation Xrotation Zrotation
      JOINT Head
      {
       OFFSET 0.000000 8.573800 0.049400
       CHANNELS 3 Yrotation Xrotation Zrotation
       End Site
       {
        OFFSET 0.000000 16.219200 0.026100
       }
      }
     }
     JOINT RightCollar
     {
      OFFSET -2.497100 8.876100 0.000000
      CHANNELS 3 Yrotation Xrotation Zrotation
      JOINT RightShoulder
      {
       OFFSET -12.289200 0.000000 0.000000
       CHANNELS 3 Yrotation Xrotation Zrotation
       JOINT RightElbow
       {
        OFFSET 0.000000 -28.194900 0.000000
        CHANNELS 3 Yrotation Xrotation Zrotation
        JOINT RightWrist
        {
         OFFSET 0.000000 -23.009700 0.007900
         CHANNELS 3 Yrotation Xrotation Zrotation
         End Site
         {
          OFFSET 0.000000 -17.151500 0.000000
         }
        }
       }
      }
     }
     JOINT LeftCollar
     {
      OFFSET 2.497100 8.876100 0.000000
      CHANNELS 3 Yrotation Xrotation Zrotation
      JOINT LeftShoulder
      {
       OFFSET 12.289200 0.000000 0.000000
       CHANNELS 3 Yrotation Xrotation Zrotation
       JOINT LeftElbow
       {
        OFFSET 0.000000 -28.194900 0.000000
        CHANNELS 3 Yrotation Xrotation Zrotation
        JOINT LeftWrist
        {
         OFFSET 0.000000 -23.009700 0.007900
         CHANNELS 3 Yrotation Xrotation Zrotation
         End Site
         {
          OFFSET 0.000000 -17.151500 0.000000
         }
        }
       }
      }
     }
    }
   }
  }
 }
 JOINT RightHip
 {
  OFFSET -11.777600 0.056700 0.005700
  CHANNELS 3 Yrotation Xrotation Zrotation
  JOINT RightKnee
  {
   OFFSET 0.000000 -39.966000 -0.004200
   CHANNELS 3 Yrotation Xrotation Zrotation
   JOINT RightAnkle
   {
    OFFSET 0.000000 -41.981900 0.027400
    CHANNELS 3 Yrotation Xrotation Zrotation
    JOINT RightToe
    {
     OFFSET 0.000000 -9.910600 16.950100
     CHANNELS 3 Yrotation Xrotation Zrotation
     End Site
     {
      OFFSET 0.000000 -1.461000 6.191600
     }
    }
   }
  }
 }
 JOINT LeftHip
 {
  OFFSET 11.777600 0.056700 0.005700
  CHANNELS 3 Yrotation Xrotation Zrotation
  JOINT LeftKnee
  {
   OFFSET 0.000000 -39.966000 -0.004200
   CHANNELS 3 Yrotation Xrotation Zrotation
   JOINT LeftAnkle
   {
    OFFSET 0.000000 -41.981900 0.027400
    CHANNELS 3 Yrotation Xrotation Zrotation
    JOINT LeftToe
    {
     OFFSET 0.000000 -9.910600 16.950100
     CHANNELS 3 Yrotation Xrotation Zrotation
     End Site
     {
      OFFSET 0.000000 -1.461000 6.191600
     }
    }
   }
  }
 }
}
MOTION
Frames: 15
Frame Time: 0.008333
-6.565143 130.466853 91.202822 175.465982 -50.561228 -2.524519 6.007987 31.778157 6.231223 0.931975 6.795182 0.990001 1.505708 10.408754 1.574806 4.230884 24.952834 4.440563 14.418517 9.193001 -3.175792 17.977521 -15.670060 -7.514524 4.450962 -8.255378 -2.817648 20.684920 -10.489387 -12.563232 -136.033291 -44.271037 170.908227 16.642132 -12.073501 -40.919794 -8.477815 -9.349932 3.161524 -14.965453 -13.576181 6.690620 124.527457 -47.582412 -164.525180 -25.335600 -43.121641 54.414763 7.141633 -27.180461 0.065676 -83.254118 86.213858 -86.480374 3.449290 -26.851327 8.233294 0.002798 0.000655 0.001636 -3.909646 -30.784352 -3.449278 143.941158 73.087427 153.505853 -3.200927 24.961857 -5.389985 0.003606 -0.011109 0.002108
-6.569208 130.466455 91.195779 175.491149 -50.526052 -2.534520 5.971882 31.811353 6.211774 0.927001 6.808361 0.990407 1.510242 10.386188 1.571054 4.198553 25.013393 4.444430 14.456710 9.049934 -3.235850 18.056676 -15.870735 -7.617708 4.598865 -8.236796 -2.862144 20.798549 -10.362038 -12.568965 -135.939284 -44.287104 170.785060 16.656664 -11.958690 -40.859380 -8.513061 -9.383544 3.147326 -15.085615 -13.530713 6.750477 123.965449 -47.544121 -164.153327 -25.284772 -43.014650 54.500888 7.134694 -27.202946 0.068879 -83.283873 86.193743 -86.524476 3.431609 -26.920884 8.216140 -0.002748 -0.008743 -0.001607 -3.914182 -30.824914 -3.469485 143.934862 73.085597 153.501087 -3.192858 24.972230 -5.381874 0.002875 -0.012666 0.001681
-6.570805 130.465891 91.187604 175.514851 -50.481491 -2.554456 5.939903 31.838576 6.202235 0.922265 6.819739 0.991124 1.484599 10.471081 1.577438 4.190397 24.963350 4.424947 14.494572 8.937767 -3.301051 18.112540 -16.118597 -7.739199 4.753367 -8.231541 -2.923197 20.897077 -10.236151 -12.553315 -135.880377 -44.289797 170.697345 16.679315 -11.837130 -40.734163 -8.547093 -9.438965 3.135637 -15.215196 -13.481020 6.785963 123.484993 -47.491645 -163.836386 -25.240153 -42.912894 54.529537 7.126815 -27.238938 0.075881 -83.300830 86.179711 -86.540129 3.421134 -26.971574 8.193927 -0.001697 -0.013185 -0.000992 -3.908201 -30.876460 -3.487091 143.915596 73.074042 153.499958 -3.183219 24.980123 -5.375768 0.000554 -0.016018 0.000324
-6.569732 130.458983 91.183514 175.542117 -50.394791 -2.590429 5.912026 31.834261 6.205320 0.918233 6.832627 0.992280 1.470313 10.512719 1.581012 4.177613 24.959397 4.416492 14.509051 8.745465 -3.375363 18.160266 -16.316358 -7.840073 4.906832 -8.266001 -2.999299 20.993355 -10.115906 -12.516146 -135.862452 -44.283034 170.647001 16.714097 -11.717608 -40.544746 -8.584407 -9.537157 3.124007 -15.359769 -13.429566 6.803023 123.111715 -47.429314 -163.590538 -25.207965 -42.823637 54.497802 7.115142 -27.321693 0.086080 -83.346858 86.169814 -86.580138 3.419986 -27.017644 8.176697 -0.000501 -0.010602 -0.000293 -3.930329 -30.965921 -3.473267 143.923591 73.067221 153.513236 -3.167996 24.989177 -5.351562 0.001748 -0.009479 0.001022
-6.573110 130.459291 91.171253 175.563891 -50.337685 -2.603134 5.894357 31.875785 6.198388 0.917045 6.849370 0.993987 1.468427 10.536528 1.583462 4.168161 24.982037 4.416076 14.492092 8.523862 -3.448000 18.193064 -16.510957 -7.934580 5.037325 -8.363284 -3.075340 21.096317 -10.002635 -12.462871 -135.882207 -44.269265 170.632322 16.764851 -11.605326 -40.309030 -8.641317 -9.687204 3.119277 -15.520583 -13.387086 6.814886 122.846404 -47.366044 -163.413294 -25.186135 -42.751988 54.413911 7.111448 -27.374605 0.075633 -83.706704 86.176555 -86.943069 3.405845 -27.063754 8.175920 -0.000399 -0.009568 -0.000233 -3.942668 -31.022110 -3.475594 143.975917 73.061772 153.550747 -3.141376 24.983353 -5.324855 -0.001393 -0.009203 -0.000814
-6.574719 130.458829 91.158374 175.582056 -50.267878 -2.620984 5.905344 31.918250 6.207037 0.920497 6.869671 0.996634 1.473651 10.565426 1.587498 4.175381 25.007298 4.420373 14.444999 8.290941 -3.507821 18.199705 -16.707438 -8.024795 5.080506 -8.531192 -3.119754 21.254465 -9.899166 -12.412767 -135.924570 -44.247864 170.641805 16.827574 -11.507122 -40.052230 -8.729010 -9.886501 3.129779 -15.698169 -13.360711 6.831664 122.688984 -47.309772 -163.299322 -25.168457 -42.701304 54.284445 7.108156 -27.441586 0.070965 -83.974440 86.179071 -87.207935 3.395499 -27.101709 8.171695 0.000483 -0.008434 0.000283 -3.946056 -31.089515 -3.474661 143.990990 73.051940 153.569575 -3.130446 24.979559 -5.305464 -0.002879 -0.012296 -0.001683
-6.575432 130.463370 91.140005 175.585641 -50.216235 -2.630481 5.952400 31.989070 6.226916 0.928497 6.891348 1.000001 1.486009 10.596122 1.592865 4.199905 25.032253 4.429470 14.374968 8.065427 -3.560768 18.176811 -16.905559 -8.102436 5.157508 -8.744348 -3.165497 21.342740 -9.823067 -12.362434 -135.979878 -44.215343 170.658207 16.895551 -11.432032 -39.800435 -8.831958 -10.110412 3.164574 -15.904250 -13.365076 6.852380 122.648212 -47.261003 -163.249373 -25.152191 -42.667678 54.119860 7.125337 -27.483689 0.067261 -84.222632 86.178837 -87.438911 3.382377 -27.168626 8.143834 -0.001894 -0.020262 -0.001107 -3.940785 -31.136703 -3.469741 144.026935 73.041462 153.611027 -3.118023 24.989785 -5.282317 0.001774 -0.015429 0.001037
-6.576739 130.460045 91.126828 175.610310 -50.115771 -2.656287 5.998892 32.017823 6.245492 0.939636 6.912986 1.003261 1.503123 10.626527 1.598269 4.235985 25.055767 4.439978 14.294466 7.896462 -3.642800 18.122801 -17.143447 -8.145570 5.205986 -9.003135 -3.188369 21.444913 -9.752898 -12.332050 -136.064938 -44.168251 170.679406 16.966197 -11.374164 -39.579712 -8.967762 -10.376041 3.216736 -16.116583 -13.362475 6.881531 122.733455 -47.220566 -163.264466 -25.142895 -42.639695 53.946853 7.135546 -27.581745 0.049647 -84.619534 86.181752 -87.816312 3.372963 -27.208358 8.145970 -0.002662 -0.014484 -0.001556 -3.954452 -31.232555 -3.463648 144.039794 73.032268 153.634301 -3.109265 24.994329 -5.274286 0.002662 -0.017912 0.001556
-6.578855 130.456485 91.112584 175.634746 -50.007761 -2.679004 6.050121 32.041008 6.259196 0.951672 6.933165 1.005953 1.521537 10.654871 1.602841 4.275343 25.077081 4.449301 14.220488 7.730744 -3.693830 18.062248 -17.336185 -8.198308 5.224168 -9.286658 -3.193725 21.595319 -9.681656 -12.322624 -136.217640 -44.107036 170.724304 17.032069 -11.310720 -39.397391 -9.117874 -10.672702 3.284692 -16.332626 -13.348808 6.914503 122.945050 -47.191886 -163.343567 -25.148993 -42.606249 53.798350 7.148772 -27.681698 0.027956 -85.029920 86.182786 -88.203692 3.356477 -27.269812 8.141172 -0.004884 -0.011818 -0.002855 -3.969910 -31.333657 -3.456244 144.058611 73.025076 153.661773 -3.097219 25.001809 -5.273403 0.005334 -0.020032 0.003118
-6.578504 130.455689 91.095359 175.655968 -49.908622 -2.708488 6.104652 32.070754 6.280128 0.962408 6.950012 1.007938 1.538015 10.678621 1.606263 4.310713 25.094697 4.456414 14.153468 7.588985 -3.740310 18.006485 -17.501056 -8.245857 5.251349 -9.579040 -3.203946 21.780280 -9.599533 -12.315817 -136.464950 -44.041023 170.811589 17.073739 -11.230919 -39.232966 -9.233330 -10.961766 3.368370 -16.567595 -13.352039 6.937693 123.268820 -47.174734 -163.480807 -25.167079 -42.568884 53.682451 7.181818 -27.765472 0.009275 -85.222880 86.178564 -88.353081 3.355810 -27.330408 8.134154 -0.004232 -0.008781 -0.002474 -3.991948 -31.423816 -3.434730 144.130567 73.008597 153.733506 -3.071201 24.984115 -5.264590 0.001987 -0.021791 0.001161
-6.577798 130.454399 91.077802 175.674990 -49.802951 -2.737476 6.147337 32.090347 6.297435 0.970355 6.962800 1.009347 1.550318 10.696566 1.608684 4.336919 25.108089 4.461401 14.095911 7.473385 -3.783755 17.959070 -17.635349 -8.290653 5.299140 -9.864455 -3.233535 21.995937 -9.509431 -12.301199 -136.801591 -43.978859 170.940224 17.084319 -11.144143 -39.065491 -9.314513 -11.249524 3.448669 -16.801287 -13.351208 6.947969 123.677408 -47.167616 -163.665767 -25.180589 -42.533218 53.576627 7.197975 -27.860202 0.000635 -85.492034 86.175190 -88.592634 3.349119 -27.387459 8.127940 -0.005057 -0.007436 -0.002956 -4.014806 -31.520377 -3.409416 144.219133 72.992274 153.824398 -3.041939 24.966693 -5.265567 0.001039 -0.024549 0.000608
-6.578160 130.453770 91.058950 175.696373 -49.698140 -2.762986 6.172868 32.104990 6.307837 0.975209 6.970675 1.010638 1.557882 10.707532 1.610808 4.353082 25.116105 4.466031 14.045714 7.387549 -3.823352 17.916386 -17.735260 -8.330603 5.368475 -10.132204 -3.286716 22.222769 -9.410993 -12.273391 -137.201210 -43.925182 171.104471 17.076851 -11.068099 -38.893773 -9.363803 -11.525237 3.517499 -17.026578 -13.344794 6.944715 124.134165 -47.166637 -163.885381 -25.173815 -42.498580 53.457657 7.208413 -27.954294 -0.008516 -85.975661 86.181601 -89.053867 3.328274 -27.456534 8.128137 -0.004482 -0.007758 -0.002620 -4.036629 -31.614505 -3.386738 144.308469 72.979917 153.916634 -3.030681 24.959604 -5.258419 0.002867 -0.025955 0.001676
-6.578685 130.452730 91.040069 175.723448 -49.589506 -2.790974 6.186107 32.106784 6.318195 0.977994 6.972959 1.012064 1.562216 10.710651 1.613065 4.347385 25.065170 4.464222 14.011279 7.388186 -3.842881 17.906931 -17.810157 -8.360514 5.459270 -10.322950 -3.350722 22.434226 -9.303795 -12.228104 -137.627233 -43.884575 171.302502 17.063356 -11.012750 -38.732954 -9.384602 -11.725572 3.566739 -17.236204 -13.331846 6.932763 124.598455 -47.167172 -164.120604 -25.139335 -42.463955 53.316385 7.215257 -28.051674 -0.017127 -86.565394 86.185990 -89.622717 3.307906 -27.531104 8.124001 -0.004232 -0.008052 -0.002474 -4.068332 -31.719057 -3.369121 144.409651 72.959388 154.017802 -3.014154 24.957036 -5.252158 0.004692 -0.026136 0.002743
-6.578446 130.454777 91.018517 175.745090 -49.496733 -2.815374 6.202813 32.113090 6.334986 0.980034 6.969993 1.013663 1.565501 10.706348 1.615623 4.338004 25.030456 4.460773 13.983576 7.406350 -3.857998 17.840351 -17.822743 -8.381708 5.554661 -10.509931 -3.423118 22.616602 -9.193611 -12.168194 -138.037771 -43.858489 171.517135 17.049656 -10.968638 -38.597166 -9.400612 -11.919117 3.610946 -17.423958 -13.311935 6.920198 125.032669 -47.168034 -164.347805 -25.078786 -42.427200 53.150997 7.224340 -28.132608 -0.020929 -87.472146 86.213782 -90.509259 3.268850 -27.623695 8.115854 -0.002407 -0.009580 -0.001407 -4.099608 -31.801928 -3.347084 144.574383 72.922041 154.169979 -2.995099 24.934864 -5.218843 0.004220 0.004517 0.002467
-6.579847 130.454676 90.998679 175.766062 -49.393658 -2.831190 6.195422 32.057891 6.332290 0.994746 7.004209 1.017809 1.560668 10.683076 1.616161 4.384074 25.096863 4.488360 13.923045 7.373845 -3.895571 17.769220 -17.771664 -8.384090 5.611180 -10.768209 -3.515139 22.772672 -9.083817 -12.102895 -138.402956 -43.848498 171.720454 17.031503 -10.925980 -38.486989 -9.456444 -12.176596 3.655859 -17.585497 -13.290488 6.910541 125.407004 -47.170570 -164.547648 -24.986315 -42.384003 52.958303 7.236890 -28.224112 -0.033902 -88.212568 86.223830 -91.231512 3.248552 -27.701340 8.106487 -0.001059 -0.008475 -0.000619 -4.126011 -31.895186 -3.335981 144.659431 72.905583 154.246283 -2.976809 24.939675 -5.207172 0.002472 0.006682 0.001446
